<svg xmlns="http://www.w3.org/2000/svg" viewBox="0 0 48 48" width="48" height="48">
  <defs>
    <linearGradient id="t" x1="4" y1="2" x2="44" y2="46" gradientUnits="userSpaceOnUse">
      <stop stop-color="#2C74F2"/>
      <stop offset="0.55" stop-color="#1A56C4"/>
      <stop offset="1" stop-color="#0C2A55"/>
    </linearGradient>
  </defs>
  <rect x="1" y="1" width="46" height="46" rx="12" fill="url(#t)"/>
  <g stroke="#36C5F0" stroke-width="1.4" stroke-linecap="round">
    <line x1="24" y1="24" x2="14.8" y2="14.8"/>
    <line x1="24" y1="24" x2="33.2" y2="14.8"/>
    <line x1="24" y1="24" x2="14.8" y2="33.2"/>
    <line x1="24" y1="24" x2="33.2" y2="33.2"/>
  </g>
  <g fill="#36C5F0">
    <circle cx="14.8" cy="14.8" r="1.7"/>
    <circle cx="33.2" cy="14.8" r="1.7"/>
    <circle cx="14.8" cy="33.2" r="1.7"/>
    <circle cx="33.2" cy="33.2" r="1.7"/>
  </g>
  <g stroke="#fff" stroke-width="2.4" stroke-linecap="round">
    <line x1="24" y1="24" x2="24" y2="13"/>
    <line x1="24" y1="24" x2="24" y2="35"/>
    <line x1="24" y1="24" x2="13" y2="24"/>
    <line x1="24" y1="24" x2="35" y2="24"/>
  </g>
  <g fill="#fff">
    <circle cx="24" cy="13" r="2.8"/>
    <circle cx="24" cy="35" r="2.8"/>
    <circle cx="13" cy="24" r="2.8"/>
    <circle cx="35" cy="24" r="2.8"/>
  </g>
  <circle cx="24" cy="24" r="4.2" fill="#fff"/>
</svg>
